<svg width="32" height="32" viewBox="0 0 32 32" fill="none" xmlns="http://www.w3.org/2000/svg">
<circle cx="16" cy="16" r="15" fill="white"/>
<path d="M17.994 0.126184C7.81906 -1.15382 -1.3582 7.4705 0.166635 18.4478C0.348611 19.7654 0.715702 21.0579 1.25536 22.2721C3.65242 27.6744 8.43401 31.1725 14.0094 31.8721C14.6871 31.9568 15.3617 32.0007 16.0331 32.0007C19.5659 32.0007 22.9827 30.8368 25.8159 28.6344C27.6984 27.1725 29.1825 25.3434 30.2335 23.2823C30.2398 23.276 30.2461 23.2697 30.2524 23.2634H30.2461C31.0744 21.6321 31.6391 19.8627 31.8745 17.996C32.9726 9.24305 26.7446 1.2305 17.9909 0.129321L17.994 0.126184ZM17.6113 2.02736C23.1615 2.77403 27.9243 6.57324 29.4774 11.9505C29.948 13.5787 30.1488 15.2854 30.0327 16.9795C29.9386 18.3285 29.7503 20.2768 28.8938 21.3842C28.5424 21.8391 27.9745 22.1152 27.3972 22.0838C25.9132 22.0054 23.7326 21.5599 22.6093 20.4368C21.9316 19.7591 22.1387 18.8744 22.5686 17.3717C23.0329 15.7497 23.6071 13.7325 22.2454 11.7748C20.5135 9.28697 18.1039 9.31207 16.3468 9.32462C15.5719 9.33089 14.7655 9.3654 14.0533 9.01089C12.083 8.02579 12.3873 5.5254 12.8767 3.75912C13.0556 3.12226 13.4101 2.40383 14.0345 2.10265C15.0918 1.58814 16.4786 1.87363 17.6113 2.02422V2.02736ZM3.13787 21.7199C2.60449 20.5623 2.24368 19.323 2.07425 18.0587C1.48126 13.6478 2.86491 9.70109 5.3812 6.8054C5.56004 6.59834 5.89889 6.77089 5.82673 7.03442C5.1804 9.46265 5.01411 12.1544 5.74515 14.6015C6.55777 17.3215 8.42146 19.3983 11.1291 20.603C13.9968 21.8799 15.5217 23.6179 15.5468 25.6321C15.5593 26.796 15.073 27.8532 14.389 28.647C13.7051 29.4407 12.6571 29.6854 11.6939 29.3779C7.9822 28.1952 4.88233 25.5097 3.13787 21.7168V21.7199ZM24.633 27.1034C22.214 28.9827 19.3181 29.9991 16.3092 30.0556C16.0802 30.0587 15.9578 29.7889 16.099 29.607C16.9775 28.4587 17.5015 27.0376 17.4858 25.6132C17.4669 24.0007 16.7202 20.9764 11.9198 18.8368C9.71098 17.8517 8.25831 16.2423 7.60257 14.0462C7.2041 12.7191 7.12566 11.3105 7.26058 9.93638C7.36725 8.85089 7.6057 7.78422 7.89749 6.73638C8.16105 5.78265 8.49363 4.85716 9.11486 4.07285C9.54156 3.53011 10.144 3.19128 10.7809 2.94658C10.8562 2.91834 10.9346 2.89011 11.0131 2.93089C11.035 2.9403 11.0538 2.95599 11.0664 2.97481C11.0946 3.02187 11.0664 3.08462 11.0538 3.13167C11.035 3.19756 11.0162 3.26344 10.9974 3.33246C10.9629 3.46109 10.9283 3.59285 10.8938 3.72462C10.8311 3.9756 10.7777 4.22658 10.7307 4.48069C10.646 4.94187 10.5864 5.40932 10.5644 5.87677C10.5456 6.29403 10.5612 6.71442 10.6177 7.12854C10.6711 7.50501 10.7589 7.87834 10.8907 8.23599C10.9189 8.31128 10.9472 8.38344 10.9785 8.4556C11.468 9.60383 12.3622 10.4415 13.6392 10.9466C14.4894 11.2823 15.4432 11.2729 16.3688 11.2634C18.0599 11.2509 19.5126 11.2352 20.6609 12.8854C21.4987 14.087 21.1316 15.3638 20.7111 16.8446C20.2499 18.4603 19.726 20.2925 21.2445 21.8078C22.6595 23.2258 25.11 23.8721 27.0458 24.0038C27.2654 24.0195 27.3878 24.2705 27.256 24.4462C26.5156 25.4313 25.6402 26.3285 24.6393 27.1066L24.633 27.1034Z" fill="#004999"/>
</svg>
